<svg xmlns="http://www.w3.org/2000/svg" width="24" height="24" viewBox="0 0 24 24" fill="none" stroke="currentColor" stroke-width="1.8" stroke-linecap="round" stroke-linejoin="round">
  <path d="M12 3l1.15 3.1a4.5 4.5 0 0 0 2.75 2.75L19 10l-3.1 1.15a4.5 4.5 0 0 0-2.75 2.75L12 17l-1.15-3.1a4.5 4.5 0 0 0-2.75-2.75L5 10l3.1-1.15a4.5 4.5 0 0 0 2.75-2.75L12 3z"/>
  <path d="M19 16l.55 1.45A2.5 2.5 0 0 0 21 18.9l-1.45.55A2.5 2.5 0 0 0 18.1 21l-.6-1.5-1.5-.6 1.5-.55A2.5 2.5 0 0 0 18.95 17L19 16z"/>
</svg>
