<svg xmlns="http://www.w3.org/2000/svg" width="20" height="20" viewBox="0 0 20 20" preserveAspectRatio="xMidYMid meet" fill="#FFA359">
  <path fill-rule="evenodd" d="M10 .8l1.1 2.05 2.25-.72.28 2.35 2.36.29-.74 2.24L17.3 8.1l-1.7 1.9 1.7 1.9-2.04 1.09.74 2.24-2.36.29-.28 2.35-2.25-.72L10 19.2l-1.1-2.05-2.25.72-.28-2.35-2.36-.29.74-2.24L2.7 11.9 4.4 10 2.7 8.1l2.04-1.09-.74-2.24 2.36-.29.28-2.35 2.25.72L10 .8Zm0 4.15a5.05 5.05 0 1 0 0 10.1 5.05 5.05 0 0 0 0-10.1Z"/>
  <path d="M7.05 6.25h3.7c1.62 0 2.7.9 2.7 2.25 0 .92-.5 1.65-1.35 2.03l1.65 3.22h-2.1l-1.42-2.85H9.08v2.85H7.05v-7.5Zm2.03 1.58v1.55h1.38c.57 0 .9-.28.9-.78s-.33-.77-.9-.77H9.08Z"/>
</svg>
